# xmcd
#
# Track frame offsets: 
#        182
#        14672
#        34075
#        51417
#        72885
#        84900
#        111452
#        130130
#        149545
#
# Disc length: 2301 seconds
#
# Revision: 11
# Processed by: cddbd v1.5.2PL0 Copyright (c) Steve Scherf et al.
# Submitted via: ExactAudioCopyFreeDBPlugin 1.0
#
DISCID=8208fb09
DTITLE=John Mayall - Road Show
DYEAR=1981
DGENRE=Blues
TTITLE0=Why Worry
TTITLE1=Road Show
TTITLE2=Mama Talk to Your Daughter
TTITLE3=A Big Man
TTITLE4=Lost and Gone
TTITLE5=Mexico City
TTITLE6=John Lee Boogie
TTITLE7=Reaching for a Mountain
TTITLE8=Baby What You Want Me to Do
EXTD=From the 1995 Success reissue CD, renamed as 'Why Worry'
EXTT0=
EXTT1=
EXTT2=
EXTT3=
EXTT4=
EXTT5=
EXTT6=
EXTT7=
EXTT8=
PLAYORDER=
